<svg id="Layer_1" data-name="Layer 1" xmlns="http://www.w3.org/2000/svg" viewBox="0 0 500 500"><defs><style>.cls-1{fill:#3f3f3f;}</style></defs><title>logo</title><path class="cls-1" d="M27.21,494.23a19.59,19.59,0,0,1-5.77-14.42q0-8.65,6.74-18.27l167.3-217.31L38.75,37.5Q31,26.92,31.06,20.19A18.77,18.77,0,0,1,37.31,5.77,20,20,0,0,1,51.25,0H97.41q14.41,0,25,15.38l129.8,168.27L382,15.38A55.23,55.23,0,0,1,393.08,3.85C396.59,1.29,401.25,0,407,0h44.23a18.42,18.42,0,0,1,13.46,5.77,18.45,18.45,0,0,1,5.77,13.46q0,9.63-6.73,18.27L305.1,246.15,472.41,461.54c4.47,6.41,6.73,12.5,6.73,18.27A19.72,19.72,0,0,1,458.94,500H411.83q-14.43,0-25-14.42L249.33,307.69,111.83,485.58a66.25,66.25,0,0,1-11.06,10.57Q95.48,500,86.83,500H41.64A19.58,19.58,0,0,1,27.21,494.23Z"/></svg>