<svg id="Layer_1" data-name="Layer 1" xmlns="http://www.w3.org/2000/svg" viewBox="0 0 500 500"><defs><style>.cls-1{fill:#3f3f3f;}</style></defs><title>logo</title><path class="cls-1" d="M453.43,4.29a13.66,13.66,0,0,1,4.28,10,16.39,16.39,0,0,1-2.85,9.29L291.25,254.35,447,476.55a16.33,16.33,0,0,1,2.86,9.28,14.66,14.66,0,0,1-14.29,14.29H394.84q-10,0-18.57-12.14L248.38,307.22,121.92,488q-7.14,12.13-18.58,12.14H65.48a14.64,14.64,0,0,1-14.29-14.29,16.4,16.4,0,0,1,2.86-9.28L208.37,253.63,44.76,23.58a16.48,16.48,0,0,1-2.86-9.29,13.21,13.21,0,0,1,4.64-10A15,15,0,0,1,56.9,0H97.63q10.71,0,18.57,11.43l135,188.62L385.56,11.43Q393.42,0,404.13,0h39.3A13.7,13.7,0,0,1,453.43,4.29Z"/></svg>