<?xml version="1.0" standalone="no"?>
<!DOCTYPE svg PUBLIC "-//W3C//DTD SVG 20010904//EN"
 "http://www.w3.org/TR/2001/REC-SVG-20010904/DTD/svg10.dtd">
<svg version="1.0" xmlns="http://www.w3.org/2000/svg"
 width="1000.000000pt" height="1000.000000pt" viewBox="0 0 1000.000000 1000.000000"
 preserveAspectRatio="xMidYMid meet">
<metadata>
Created by potrace 1.11, written by Peter Selinger 2001-2013
</metadata>
<g transform="translate(0.000000,1000.000000) scale(0.100000,-0.100000)"
fill="#000000" stroke="none">
<path d="M913 9985 c-126 -39 -241 -152 -276 -271 -49 -171 -6 -278 240 -601
162 -214 276 -364 374 -493 51 -69 99 -132 106 -140 12 -15 184 -242 367 -485
49 -66 92 -122 95 -125 4 -3 58 -75 123 -160 121 -162 417 -553 798 -1055 124
-163 277 -365 340 -448 63 -84 220 -292 349 -462 129 -171 237 -312 241 -315
3 -3 30 -39 60 -80 63 -86 54 -74 124 -164 l54 -69 -96 -126 c-53 -69 -99
-128 -102 -131 -3 -3 -25 -32 -49 -65 -25 -33 -47 -62 -51 -65 -3 -3 -41 -52
-85 -110 -44 -58 -149 -195 -235 -306 -85 -110 -166 -216 -180 -234 -14 -18
-88 -115 -165 -215 -77 -99 -196 -254 -265 -344 -69 -90 -183 -239 -255 -331
-71 -92 -168 -218 -215 -280 -47 -62 -90 -118 -96 -124 -5 -6 -26 -32 -45 -57
-19 -26 -86 -113 -149 -195 -63 -82 -135 -176 -160 -209 -24 -33 -47 -62 -50
-65 -3 -3 -44 -54 -90 -115 -46 -60 -93 -122 -104 -136 -12 -14 -32 -40 -46
-59 -24 -32 -198 -258 -388 -505 -51 -66 -101 -131 -110 -144 -9 -13 -22 -28
-27 -35 -6 -6 -24 -29 -40 -51 -17 -22 -32 -42 -35 -45 -3 -3 -41 -52 -85
-110 -44 -58 -84 -110 -90 -117 -131 -155 -228 -318 -255 -428 -42 -174 21
-350 160 -446 99 -69 110 -70 722 -67 528 3 545 4 600 25 107 40 263 181 380
344 17 24 34 46 37 49 3 3 20 23 37 45 175 228 920 1191 924 1195 3 3 25 32
49 65 25 33 47 62 50 65 4 3 19 23 36 45 16 22 33 45 37 50 13 15 224 287 303
390 397 515 1195 1547 1205 1558 4 5 61 -60 126 -145 65 -84 123 -158 129
-164 5 -7 18 -24 29 -38 20 -27 188 -246 420 -546 28 -36 53 -67 56 -70 3 -3
17 -21 30 -40 14 -19 32 -44 42 -55 15 -18 164 -211 225 -291 38 -49 384 -497
407 -526 11 -14 28 -36 37 -47 45 -59 639 -828 839 -1086 64 -82 125 -162 135
-176 30 -41 200 -260 288 -371 119 -150 226 -227 363 -263 85 -22 1102 -22
1187 0 204 53 320 247 282 471 -25 140 -74 220 -358 584 -139 179 -483 622
-765 985 -282 363 -523 674 -536 690 -13 17 -201 258 -417 537 -217 278 -618
795 -892 1148 -274 353 -497 647 -494 653 3 7 80 111 172 232 92 121 193 254
224 295 31 41 58 77 61 80 3 3 37 48 77 100 39 52 134 178 212 280 78 102 201
264 273 360 73 96 143 186 155 200 13 14 23 28 23 32 0 3 6 13 13 20 7 7 82
105 167 218 85 113 161 212 167 220 7 8 139 182 294 385 154 204 291 384 304
400 36 47 219 288 314 415 47 63 88 117 92 120 3 3 82 105 175 228 93 123 231
305 308 405 241 316 261 360 261 552 -1 79 -4 97 -30 150 -38 75 -114 151
-191 190 l-59 30 -535 3 c-593 2 -605 1 -708 -61 -30 -18 -86 -66 -125 -107
-55 -58 -766 -970 -1156 -1485 -25 -33 -48 -62 -51 -65 -6 -5 -90 -113 -140
-180 -14 -18 -113 -146 -220 -285 -107 -139 -204 -264 -215 -280 -11 -15 -25
-32 -30 -39 -10 -10 -71 -89 -356 -460 -47 -61 -178 -231 -291 -377 -113 -147
-214 -278 -223 -293 -10 -14 -23 -26 -29 -26 -7 0 -28 21 -46 48 -19 26 -37
49 -40 52 -3 3 -58 72 -120 154 -63 82 -142 184 -175 227 -33 43 -96 124 -139
181 -44 57 -170 220 -280 363 -110 143 -204 265 -208 270 -4 6 -18 24 -31 40
-23 28 -323 417 -370 479 -12 16 -85 110 -162 210 -77 100 -185 240 -240 311
-54 72 -101 132 -104 135 -4 3 -40 49 -81 104 -41 54 -86 113 -100 131 -14 17
-38 50 -55 71 -321 420 -541 697 -590 741 -69 63 -176 119 -255 133 -85 16
-1084 12 -1137 -5z"/>
</g>
</svg>
