<?xml version="1.0" standalone="no"?>
<!DOCTYPE svg PUBLIC "-//W3C//DTD SVG 20010904//EN"
 "http://www.w3.org/TR/2001/REC-SVG-20010904/DTD/svg10.dtd">
<svg version="1.0" xmlns="http://www.w3.org/2000/svg"
 width="1000.000000pt" height="1000.000000pt" viewBox="0 0 1000.000000 1000.000000"
 preserveAspectRatio="xMidYMid meet">
<metadata>
Created by potrace 1.11, written by Peter Selinger 2001-2013
</metadata>
<g transform="translate(0.000000,1000.000000) scale(0.100000,-0.100000)"
fill="#000000" stroke="none">
<path d="M1023 9975 c-112 -51 -181 -148 -184 -256 -2 -78 15 -128 74 -216 48
-71 458 -649 496 -699 9 -12 22 -30 29 -40 12 -19 243 -344 384 -542 40 -56
101 -142 135 -190 34 -48 71 -100 83 -117 66 -91 501 -703 553 -778 34 -49 76
-107 93 -130 17 -23 120 -168 230 -322 109 -154 201 -281 206 -283 4 -2 8 -8
8 -12 0 -5 46 -74 103 -152 56 -79 109 -153 117 -164 43 -63 420 -593 454
-639 69 -94 337 -475 346 -491 11 -19 -15 -60 -251 -400 -144 -209 -312 -451
-372 -539 -61 -88 -181 -261 -267 -385 -86 -124 -190 -274 -232 -335 -156
-226 -547 -792 -580 -837 -46 -66 -61 -87 -413 -598 -173 -250 -318 -460 -322
-465 -5 -6 -27 -37 -49 -70 -92 -134 -169 -245 -382 -552 -145 -209 -229 -340
-241 -375 -38 -112 -12 -226 72 -307 81 -80 54 -76 587 -76 l475 0 56 28 c78
38 140 101 232 237 43 63 97 142 121 175 23 33 63 89 87 125 80 114 697 997
861 1230 86 124 162 232 168 240 6 8 130 186 276 395 147 209 276 394 288 411
27 41 276 397 436 624 17 25 79 113 137 195 58 83 111 158 118 168 12 17 23 4
115 -125 114 -161 479 -676 573 -811 34 -48 103 -145 153 -215 50 -70 133
-188 186 -262 52 -74 188 -268 303 -430 115 -162 220 -311 234 -331 14 -20 62
-88 107 -150 139 -196 368 -520 395 -558 14 -20 81 -115 149 -211 68 -96 181
-256 251 -356 150 -211 204 -274 279 -323 96 -62 81 -60 605 -60 475 -1 480 0
523 22 100 50 163 143 168 247 6 109 -7 134 -261 495 -27 39 -100 142 -161
230 -62 88 -141 200 -176 249 -35 49 -65 94 -67 100 -2 6 -7 13 -11 16 -3 3
-25 32 -48 65 -23 33 -56 80 -73 105 -18 25 -111 158 -207 295 -97 138 -191
273 -211 300 -280 399 -845 1207 -873 1249 -7 10 -27 37 -44 60 -17 22 -98
138 -180 256 -81 118 -152 220 -157 225 -4 6 -70 98 -144 205 -75 107 -160
229 -189 270 -30 41 -83 118 -119 170 -37 52 -89 127 -116 165 -116 164 -129
186 -123 198 4 7 114 162 243 345 130 183 268 377 306 432 39 54 111 157 161
227 77 109 154 217 349 493 18 25 106 149 195 275 90 127 176 248 192 270 15
22 73 103 127 180 55 77 129 181 163 230 34 50 68 97 75 105 7 8 48 67 92 130
44 63 84 120 88 125 5 6 91 127 193 270 101 143 220 311 264 373 45 63 88 124
96 135 8 12 67 95 130 184 63 89 165 233 227 320 61 87 172 244 247 348 80
112 142 210 153 240 40 117 7 245 -84 325 -80 70 -89 71 -610 68 l-458 -3 -66
-32 c-36 -18 -88 -55 -116 -82 -29 -28 -160 -202 -292 -388 -132 -186 -247
-347 -255 -358 -8 -11 -151 -211 -317 -445 -166 -234 -327 -460 -358 -502 -31
-42 -105 -146 -164 -230 -115 -162 -653 -918 -731 -1028 -26 -36 -133 -186
-239 -335 -106 -148 -244 -342 -308 -431 l-115 -161 -179 250 c-99 138 -196
273 -216 301 -71 100 -594 831 -602 841 -4 6 -78 109 -165 230 -86 121 -165
232 -175 245 -17 23 -149 208 -182 255 -34 47 -84 118 -229 320 -8 11 -58 81
-112 155 -53 74 -116 162 -139 195 -23 33 -124 175 -225 315 -101 140 -204
284 -229 320 -25 36 -49 70 -53 75 -5 6 -59 80 -119 165 -127 177 -164 219
-234 265 -99 64 -109 65 -625 65 l-466 -1 -51 -24z"/>
</g>
</svg>
